<svg width="30" height="30" viewBox="0 0 30 30" fill="none" xmlns="http://www.w3.org/2000/svg">
<path d="M26.25 13.75H24.9125C24.6335 11.55 23.6311 9.50509 22.063 7.93698C20.4949 6.36887 18.45 5.36649 16.25 5.0875V3.75C16.25 3.41848 16.1183 3.10054 15.8839 2.86612C15.6495 2.6317 15.3315 2.5 15 2.5C14.6685 2.5 14.3505 2.6317 14.1161 2.86612C13.8817 3.10054 13.75 3.41848 13.75 3.75V5.0875C11.55 5.36649 9.50509 6.36887 7.93698 7.93698C6.36887 9.50509 5.36649 11.55 5.0875 13.75H3.75C3.41848 13.75 3.10054 13.8817 2.86612 14.1161C2.6317 14.3505 2.5 14.6685 2.5 15C2.5 15.3315 2.6317 15.6495 2.86612 15.8839C3.10054 16.1183 3.41848 16.25 3.75 16.25H5.0875C5.36649 18.45 6.36887 20.4949 7.93698 22.063C9.50509 23.6311 11.55 24.6335 13.75 24.9125V26.25C13.75 26.5815 13.8817 26.8995 14.1161 27.1339C14.3505 27.3683 14.6685 27.5 15 27.5C15.3315 27.5 15.6495 27.3683 15.8839 27.1339C16.1183 26.8995 16.25 26.5815 16.25 26.25V24.9125C18.45 24.6335 20.4949 23.6311 22.063 22.063C23.6311 20.4949 24.6335 18.45 24.9125 16.25H26.25C26.5815 16.25 26.8995 16.1183 27.1339 15.8839C27.3683 15.6495 27.5 15.3315 27.5 15C27.5 14.6685 27.3683 14.3505 27.1339 14.1161C26.8995 13.8817 26.5815 13.75 26.25 13.75ZM21.25 16.25H22.3875C22.127 17.7831 21.3964 19.1972 20.2968 20.2968C19.1972 21.3964 17.7831 22.127 16.25 22.3875V21.25C16.25 20.9185 16.1183 20.6005 15.8839 20.3661C15.6495 20.1317 15.3315 20 15 20C14.6685 20 14.3505 20.1317 14.1161 20.3661C13.8817 20.6005 13.75 20.9185 13.75 21.25V22.3875C12.2169 22.127 10.8028 21.3964 9.7032 20.2968C8.60362 19.1972 7.87302 17.7831 7.6125 16.25H8.75C9.08152 16.25 9.39946 16.1183 9.63388 15.8839C9.8683 15.6495 10 15.3315 10 15C10 14.6685 9.8683 14.3505 9.63388 14.1161C9.39946 13.8817 9.08152 13.75 8.75 13.75H7.6125C7.87302 12.2169 8.60362 10.8028 9.7032 9.7032C10.8028 8.60362 12.2169 7.87302 13.75 7.6125V8.75C13.75 9.08152 13.8817 9.39946 14.1161 9.63388C14.3505 9.8683 14.6685 10 15 10C15.3315 10 15.6495 9.8683 15.8839 9.63388C16.1183 9.39946 16.25 9.08152 16.25 8.75V7.6125C17.7831 7.87302 19.1972 8.60362 20.2968 9.7032C21.3964 10.8028 22.127 12.2169 22.3875 13.75H21.25C20.9185 13.75 20.6005 13.8817 20.3661 14.1161C20.1317 14.3505 20 14.6685 20 15C20 15.3315 20.1317 15.6495 20.3661 15.8839C20.6005 16.1183 20.9185 16.25 21.25 16.25ZM15 13.75C14.7528 13.75 14.5111 13.8233 14.3055 13.9607C14.1 14.098 13.9398 14.2932 13.8451 14.5216C13.7505 14.7501 13.7258 15.0014 13.774 15.2439C13.8222 15.4863 13.9413 15.7091 14.1161 15.8839C14.2909 16.0587 14.5137 16.1778 14.7561 16.226C14.9986 16.2742 15.2499 16.2495 15.4784 16.1549C15.7068 16.0602 15.902 15.9 16.0393 15.6945C16.1767 15.4889 16.25 15.2472 16.25 15C16.25 14.6685 16.1183 14.3505 15.8839 14.1161C15.6495 13.8817 15.3315 13.75 15 13.75Z" fill="#A9A9A9"/>
</svg>
