<svg width="36" height="37" viewBox="0 0 36 37" fill="none" xmlns="http://www.w3.org/2000/svg">
<path d="M0.283325 18.3667C0.283325 17.9667 0.416659 17.6167 0.699992 17.3333C0.983325 17.0667 1.33333 16.9333 1.69999 16.9333H5.09999C5.48333 16.9333 5.79999 17.0667 6.06666 17.35C6.31666 17.6333 6.44999 17.9667 6.44999 18.3667C6.44999 18.7667 6.33333 19.1 6.08333 19.3833C5.83333 19.6667 5.49999 19.8 5.11666 19.8H1.71666C1.33333 19.8 0.999992 19.6667 0.716659 19.3833C0.433326 19.1 0.283325 18.7667 0.283325 18.3667ZM5.04999 29.9167C5.04999 29.5333 5.18333 29.2 5.43333 28.9L7.88333 26.5167C8.13333 26.25 8.46666 26.1333 8.86666 26.1333C9.26666 26.1333 9.59999 26.2667 9.86666 26.5167C10.1333 26.7667 10.2667 27.0833 10.2667 27.4667C10.2667 27.8667 10.1333 28.2333 9.86666 28.5333L7.49999 30.9C6.81666 31.4333 6.13332 31.4333 5.44999 30.9C5.18332 30.6333 5.04999 30.3 5.04999 29.9167ZM5.04999 6.84999C5.04999 6.46666 5.18333 6.13332 5.43333 5.83332C5.76666 5.54999 6.11666 5.41666 6.49999 5.41666C6.86666 5.41666 7.19999 5.54999 7.48332 5.81666L9.86666 8.26666C10.1333 8.51666 10.2667 8.84999 10.2667 9.24999C10.2667 9.64999 10.1333 9.98332 9.86666 10.25C9.59999 10.5167 9.26666 10.65 8.86666 10.65C8.46666 10.65 8.13333 10.5167 7.88333 10.25L5.44999 7.86666C5.18332 7.59999 5.04999 7.24999 5.04999 6.84999ZM9.29999 18.3667C9.29999 16.8167 9.68332 15.3667 10.4667 14.0333C11.25 12.7 12.3 11.6333 13.65 10.85C15 10.0667 16.4333 9.68332 17.9833 9.68332C19.15 9.68332 20.2667 9.91666 21.35 10.3833C22.4167 10.85 23.35 11.4667 24.1167 12.25C24.9 13.0333 25.5167 13.95 25.9667 15.0167C26.4167 16.0833 26.65 17.2167 26.65 18.3833C26.65 19.95 26.2667 21.4 25.4833 22.7333C24.7 24.0667 23.65 25.1167 22.3167 25.9C20.9833 26.6833 19.5333 27.0667 17.9667 27.0667C16.4 27.0667 14.95 26.6833 13.6167 25.9C12.2833 25.1167 11.2333 24.0667 10.45 22.7333C9.69999 21.3833 9.29999 19.9333 9.29999 18.3667ZM12.1333 18.3667C12.1333 20 12.7 21.3833 13.85 22.5333C14.9833 23.6833 16.3667 24.2667 18 24.2667C19.6333 24.2667 21.0167 23.6833 22.1667 22.5333C23.3167 21.3833 23.9 20 23.9 18.3667C23.9 16.7667 23.3167 15.4 22.1667 14.25C21.0167 13.1167 19.6333 12.55 18 12.55C16.3833 12.55 15 13.1167 13.8667 14.25C12.7 15.4 12.1333 16.7667 12.1333 18.3667ZM16.5667 31.3333C16.5667 30.9333 16.7 30.6 16.9833 30.3333C17.2667 30.0667 17.6 29.9333 17.9833 29.9333C18.3833 29.9333 18.7333 30.0667 19 30.3333C19.2667 30.6 19.4 30.9333 19.4 31.3333V34.65C19.4 35.05 19.2667 35.4 18.9833 35.6833C18.7 35.9667 18.3667 36.1 17.9833 36.1C17.6 36.1 17.25 35.9667 16.9833 35.6833C16.7 35.4 16.5667 35.05 16.5667 34.65V31.3333ZM16.5667 5.49999V2.09999C16.5667 1.71666 16.7 1.38332 16.9833 1.09999C17.2667 0.816657 17.6 0.666656 18 0.666656C18.4 0.666656 18.7167 0.79999 19 1.08332C19.2833 1.36666 19.4167 1.69999 19.4167 2.08332V5.49999C19.4167 5.88332 19.2833 6.19999 19 6.46666C18.7167 6.73332 18.3833 6.84999 18 6.84999C17.6167 6.84999 17.2667 6.71666 17 6.46666C16.7333 6.21666 16.5667 5.88332 16.5667 5.49999ZM25.7667 27.4667C25.7667 27.0833 25.9 26.7667 26.15 26.5333C26.4 26.2667 26.7167 26.15 27.0833 26.15C27.4833 26.15 27.8167 26.2833 28.0833 26.5333L30.5167 28.9167C30.7833 29.2 30.9167 29.55 30.9167 29.9333C30.9167 30.3167 30.7833 30.65 30.5167 30.9167C29.85 31.4333 29.1833 31.4333 28.5167 30.9167L26.15 28.55C25.9 28.25 25.7667 27.9 25.7667 27.4667ZM25.7667 9.26666C25.7667 8.84999 25.9 8.51666 26.15 8.28332L28.5167 5.83332C28.8 5.56666 29.1333 5.43332 29.5 5.43332C29.9 5.43332 30.2333 5.56666 30.5 5.84999C30.7833 6.13332 30.9167 6.46666 30.9167 6.84999C30.9167 7.26666 30.7833 7.61666 30.5167 7.88332L28.0833 10.2667C27.7833 10.5333 27.45 10.6667 27.0833 10.6667C26.7 10.6667 26.4 10.5333 26.15 10.2667C25.9 9.99999 25.7667 9.66666 25.7667 9.26666ZM29.5333 18.3667C29.5333 17.9667 29.6667 17.6333 29.9333 17.3333C30.2 17.0667 30.5167 16.9333 30.8833 16.9333H34.25C34.6333 16.9333 34.9667 17.0833 35.25 17.3667C35.5333 17.65 35.6833 17.9833 35.6833 18.3667C35.6833 18.75 35.5333 19.0833 35.25 19.3667C34.9667 19.65 34.6333 19.7833 34.25 19.7833H30.8833C30.5 19.7833 30.1667 19.65 29.9167 19.3667C29.6667 19.0833 29.5333 18.7667 29.5333 18.3667Z" fill="white"/>
</svg>
