<svg width="16" height="16" viewBox="0 0 16 16" fill="none" xmlns="http://www.w3.org/2000/svg">
<g clip-path="url(#clip0_3_30)">
<path d="M11.742 10.344C12.7103 9.0227 13.144 7.3845 12.9563 5.75716C12.7686 4.12982 11.9734 2.63335 10.7298 1.56714C9.48611 0.50093 7.88575 -0.0563875 6.24883 0.00668566C4.61192 0.0697588 3.05918 0.748571 1.90127 1.90732C0.743349 3.06606 0.0656481 4.61929 0.00374626 6.25624C-0.0581556 7.8932 0.500307 9.49317 1.56741 10.7361C2.6345 11.9789 4.13154 12.7731 5.75902 12.9596C7.38649 13.1461 9.02438 12.7112 10.345 11.742H10.344C10.374 11.782 10.406 11.82 10.442 11.857L14.292 15.707C14.4795 15.8946 14.7339 16.0001 14.9991 16.0002C15.2644 16.0003 15.5189 15.895 15.7065 15.7075C15.8941 15.52 15.9996 15.2656 15.9997 15.0004C15.9998 14.7351 15.8945 14.4806 15.707 14.293L11.857 10.443C11.8212 10.4068 11.7828 10.3744 11.742 10.344ZM12 6.50001C12 7.22228 11.8577 7.93748 11.5813 8.60477C11.3049 9.27206 10.8998 9.87837 10.3891 10.3891C9.87836 10.8998 9.27205 11.3049 8.60476 11.5813C7.93747 11.8577 7.22227 12 6.5 12C5.77773 12 5.06253 11.8577 4.39524 11.5813C3.72795 11.3049 3.12163 10.8998 2.61091 10.3891C2.10019 9.87837 1.69506 9.27206 1.41866 8.60477C1.14226 7.93748 0.999998 7.22228 0.999998 6.50001C0.999998 5.04132 1.57946 3.64237 2.61091 2.61092C3.64236 1.57947 5.04131 1.00001 6.5 1.00001C7.95869 1.00001 9.35763 1.57947 10.3891 2.61092C11.4205 3.64237 12 5.04132 12 6.50001Z" fill="#F1F1F1"/>
</g>
<defs>
<clipPath id="clip0_3_30">
<rect width="16" height="16" fill="white"/>
</clipPath>
</defs>
</svg>
