<svg width="35" height="40" viewBox="0 0 35 40" fill="none" xmlns="http://www.w3.org/2000/svg">
<path d="M16.5 31C16.5 34.0376 14.0376 36.5 11 36.5C7.9624 36.5 5.5 34.0376 5.5 31C5.5 28.3039 7.4399 26.0609 10 25.5907V13H12V25.5907C14.5601 26.061 16.5 28.3039 16.5 31ZM20 31C20 35.9706 15.9705 40 11 40C6.0294 40 2 35.9706 2 31C2 27.4663 4.0365 24.4083 7 22.9356V4.00009C7 1.79089 8.7908 9.15527e-05 11 9.15527e-05C13.2091 9.15527e-05 15 1.79089 15 4.00009V22.9355C17.9634 24.4082 20 27.4663 20 31ZM9 24.2899C6.1085 25.1505 4 27.829 4 31C4 34.866 7.134 38 11 38C14.866 38 17.9999 34.866 17.9999 31C17.9999 27.829 15.8914 25.1505 13 24.2899V4.00009C13 2.89549 12.1045 2.00009 11 2.00009C9.8954 2.00009 9 2.89549 9 4.00009V24.2899ZM6 2.99999V3.99999H0V2.99999H6ZM6 5.99999V6.99999H2V5.99999H6ZM6 8.99999V9.99999H0V8.99999H6ZM6 12V13H2V12H6ZM6 15V16H0V15H6ZM6 18V19H2V18H6ZM6 21V22H0V21H6ZM27.8267 19.4983C26.8836 19.9572 25.6518 20.1867 24.1312 20.1867C22.146 20.1867 20.5855 19.6004 19.45 18.4279C18.3144 17.2554 17.7467 15.694 17.7467 13.7438C17.7467 11.6651 18.3854 9.97929 19.6629 8.68629C20.9404 7.39319 22.598 6.74669 24.6358 6.74669C25.8978 6.74669 26.9614 6.90999 27.8267 7.23669V10.1067C26.975 9.60889 26.0047 9.35999 24.9158 9.35999C23.72 9.35999 22.7551 9.73529 22.021 10.4858C21.287 11.2364 20.92 12.2533 20.92 13.5367C20.92 14.7675 21.2661 15.748 21.9583 16.4781C22.6505 17.2083 23.5829 17.5733 24.7554 17.5733C25.8735 17.5733 26.8972 17.3245 27.8267 16.8267V19.4983ZM32.3008 11.7867C31.5736 11.7867 30.9572 11.5407 30.4517 11.0488C29.9461 10.5568 29.6933 9.95789 29.6933 9.25209C29.6933 8.54819 29.9461 7.95469 30.4517 7.47149C30.9572 6.98829 31.5736 6.74669 32.3008 6.74669C33.0242 6.74669 33.6415 6.98829 34.1529 7.47149C34.6643 7.95469 34.92 8.54819 34.92 9.25209C34.92 9.95789 34.6643 10.5568 34.1529 11.0488C33.6415 11.5407 33.0242 11.7867 32.3008 11.7867ZM32.3067 8.05329C31.9936 8.05329 31.7287 8.16999 31.5119 8.40329C31.2951 8.63669 31.1867 8.92149 31.1867 9.25789C31.1867 9.59429 31.2951 9.88209 31.5119 10.1213C31.7287 10.3604 31.9936 10.48 32.3067 10.48C32.6139 10.48 32.8774 10.3604 33.0971 10.1213C33.3168 9.88209 33.4267 9.59429 33.4267 9.25789C33.4267 8.92149 33.3183 8.63669 33.1015 8.40329C32.8846 8.16999 32.6197 8.05329 32.3067 8.05329Z" fill="white"/>
</svg>
