<svg width="26" height="32" viewBox="0 0 26 32" fill="none" xmlns="http://www.w3.org/2000/svg">
<path d="M0.600006 19.65C0.600006 18.1833 1.00001 16.5 1.80001 14.6C2.60001 12.7 3.63334 10.85 4.90001 9.08334C7.50001 5.65001 9.76667 3.05001 11.6667 1.30001L12.9167 0.100006C13.3333 0.533339 13.8 0.933339 14.3 1.30001C14.9833 2.00001 16.0333 3.15001 17.4333 4.78334C18.8333 6.41667 20.05 7.86667 21.05 9.20001C22.2333 10.8833 23.25 12.7 24.0667 14.6167C24.8833 16.5333 25.3 18.2167 25.3 19.6667C25.3 21.3333 24.9833 22.9167 24.3333 24.4333C23.6833 25.95 22.8167 27.2667 21.7167 28.3667C20.6167 29.4667 19.3 30.35 17.7667 31C16.2333 31.65 14.6167 31.9833 12.9167 31.9833C11.25 31.9833 9.66667 31.6667 8.15001 31.0333C6.63334 30.4 5.31667 29.55 4.21667 28.45C3.11667 27.3667 2.23334 26.05 1.58334 24.5333C0.933339 23.0167 0.600006 21.3833 0.600006 19.65ZM4.36667 14.7667C4.36667 16.15 4.65001 17.25 5.23334 18.0833C5.81667 18.9 6.70001 19.3167 7.88334 19.3167C9.08334 19.3167 9.96667 18.9 10.5667 18.0833C11.15 17.2667 11.45 16.1667 11.4667 14.7667C11.45 13.3667 11.15 12.2667 10.5667 11.4333C9.98334 10.6167 9.08334 10.2 7.88334 10.2C6.70001 10.2 5.81667 10.6167 5.23334 11.4333C4.65001 12.2667 4.36667 13.3667 4.36667 14.7667ZM6.98334 14.7667C6.98334 14.5167 6.98334 14.3167 6.98334 14.1833C6.98334 14.05 7.00001 13.8667 7.01667 13.6333C7.03334 13.4 7.05001 13.2167 7.10001 13.1C7.15001 12.9833 7.18334 12.8333 7.25001 12.7C7.31667 12.5667 7.40001 12.45 7.50001 12.4C7.61667 12.3333 7.73334 12.3 7.88334 12.3C8.11667 12.3 8.30001 12.3667 8.43334 12.5C8.56667 12.6333 8.66667 12.85 8.71667 13.1333C8.76667 13.4333 8.80001 13.6667 8.81667 13.8833C8.83334 14.1 8.83334 14.3833 8.83334 14.75C8.83334 15.1333 8.83334 15.4167 8.81667 15.6167C8.80001 15.8167 8.76667 16.0667 8.71667 16.3667C8.66667 16.65 8.56667 16.8667 8.43334 17C8.30001 17.1333 8.11667 17.2 7.88334 17.2C7.73334 17.2 7.61667 17.1667 7.50001 17.1C7.38334 17.0333 7.30001 16.9333 7.25001 16.8C7.18334 16.6667 7.13334 16.5167 7.10001 16.4C7.06667 16.2667 7.03334 16.0833 7.01667 15.8667C7.00001 15.6333 6.98334 15.45 6.98334 15.3333C6.98334 15.2167 6.98334 15.0167 6.98334 14.7667ZM7.96667 27.6833H10.1667L18.4833 9.78334H16.2333L7.96667 27.6833ZM15.1333 22.7C15.15 24.1 15.4667 25.2 16.05 26.0333C16.6333 26.85 17.5333 27.2667 18.7167 27.2667C19.9167 27.2667 20.8 26.85 21.3833 26.0333C21.9667 25.2167 22.25 24.1 22.2667 22.7C22.25 21.3 21.9667 20.2 21.3833 19.3833C20.8 18.5667 19.9167 18.15 18.7167 18.15C17.5333 18.15 16.6333 18.5667 16.05 19.3833C15.45 20.2 15.15 21.3 15.1333 22.7ZM17.75 22.7C17.75 22.3167 17.75 22.0333 17.7667 21.8333C17.7833 21.6333 17.8167 21.3833 17.8667 21.0833C17.9167 20.7833 18.0167 20.5833 18.15 20.45C18.2833 20.3167 18.4667 20.25 18.7 20.25C18.85 20.25 18.9833 20.2833 19.1 20.35C19.2167 20.4167 19.3 20.5167 19.3667 20.6667C19.4333 20.8167 19.4833 20.95 19.5333 21.0667C19.5833 21.1833 19.6 21.3667 19.6167 21.6L19.6333 22.1333V22.7V23.2833L19.6167 23.8167L19.5333 24.35L19.3667 24.75L19.1 25.0667L18.7 25.1667C18.4667 25.1667 18.2833 25.1 18.15 24.9667C18.0167 24.8333 17.9167 24.6167 17.8667 24.3333C17.8167 24.0333 17.7833 23.7833 17.7667 23.5833C17.75 23.3833 17.75 23.0833 17.75 22.7Z" fill="white"/>
</svg>
