<svg width="40" height="23" viewBox="0 0 40 23" fill="none" xmlns="http://www.w3.org/2000/svg">
<path d="M0.166656 14.2833C0.166656 14.6833 0.316657 15.0333 0.633323 15.3167C0.89999 15.6333 1.24999 15.7833 1.68332 15.7833H26.1667C26.65 15.7833 27.05 15.95 27.3833 16.2833C27.7167 16.6167 27.8833 17.0333 27.8833 17.5167C27.8833 18 27.7167 18.4 27.3833 18.7167C27.05 19.0333 26.65 19.2 26.15 19.2C25.6667 19.2 25.25 19.0333 24.9333 18.7167C24.6667 18.4167 24.3333 18.2833 23.9333 18.2833C23.5167 18.2833 23.1667 18.4333 22.8667 18.7167C22.5667 19 22.4167 19.35 22.4167 19.7333C22.4167 20.15 22.5667 20.5 22.8833 20.7833C23.8167 21.7 24.9167 22.1667 26.15 22.1667C27.45 22.1667 28.5667 21.7167 29.5 20.8167C30.4333 19.9167 30.8833 18.8333 30.8833 17.5333C30.8833 16.2333 30.4167 15.1333 29.4833 14.2C28.55 13.2667 27.4333 12.8 26.15 12.8H1.68332C1.26666 12.8 0.916656 12.95 0.616656 13.2333C0.316656 13.5167 0.166656 13.8667 0.166656 14.2833ZM0.166656 8.81666C0.166656 9.19999 0.316657 9.53332 0.633323 9.83332C0.916657 10.1333 1.26666 10.2667 1.68332 10.2667H35.0833C36.3833 10.2667 37.5 9.81666 38.4333 8.89999C39.3667 7.99999 39.8333 6.89999 39.8333 5.61666C39.8333 4.33332 39.3667 3.21666 38.4333 2.29999C37.5 1.38332 36.3833 0.916656 35.0833 0.916656C33.8 0.916656 32.7167 1.36666 31.8333 2.24999C31.5333 2.51666 31.3833 2.88332 31.3833 3.36666C31.3833 3.79999 31.5333 4.14999 31.8167 4.41666C32.1 4.68332 32.45 4.81666 32.8667 4.81666C33.2667 4.81666 33.6167 4.68332 33.9167 4.41666C34.2333 4.06666 34.6167 3.89999 35.0833 3.89999C35.5667 3.89999 35.9667 4.06666 36.3 4.39999C36.6333 4.73332 36.8 5.13332 36.8 5.61666C36.8 6.09999 36.6333 6.49999 36.3 6.81666C35.9667 7.13332 35.5667 7.29999 35.0833 7.29999H1.68332C1.26666 7.29999 0.916656 7.44999 0.616656 7.73332C0.316656 8.04999 0.166656 8.39999 0.166656 8.81666Z" fill="white"/>
</svg>
